HIERARCHY
ROOT Hips
{
	OFFSET -13.091600 -28.302996 44.698402
	CHANNELS 6 Xposition Yposition Zposition Zrotation Xrotation Yrotation
	JOINT Chest
	{
		OFFSET -0.673000 0.623899 5.369202
		CHANNELS 6 Xposition Yposition Zposition Zrotation Xrotation Yrotation
		JOINT Chest2
		{
			OFFSET 0.000000 0.000000 4.415001
			CHANNELS 6 Xposition Yposition Zposition Zrotation Xrotation Yrotation
			JOINT Neck
			{
				OFFSET 0.000000 0.000002 10.273300
				CHANNELS 6 Xposition Yposition Zposition Zrotation Xrotation Yrotation
				JOINT Head
				{
					OFFSET 0.000000 0.000000 2.173897
					CHANNELS 6 Xposition Yposition Zposition Zrotation Xrotation Yrotation
					End Site
					{
						OFFSET 0.000000 0.000000 9.961800
					}
				}
			}
			JOINT LeftCollar
			{
				OFFSET 2.359900 -0.565201 5.928101
				CHANNELS 6 Xposition Yposition Zposition Zrotation Xrotation Yrotation
				JOINT LeftShoulder
				{
					OFFSET 5.443700 0.000000 0.000000
					CHANNELS 6 Xposition Yposition Zposition Zrotation Xrotation Yrotation
					JOINT LeftElbow
					{
						OFFSET 0.000000 0.000000 -10.615799
						CHANNELS 6 Xposition Yposition Zposition Zrotation Xrotation Yrotation
						JOINT LeftWrist
						{
							OFFSET 0.000000 -0.000002 -13.110302
							CHANNELS 6 Xposition Yposition Zposition Zrotation Xrotation Yrotation
							End Site
							{
								OFFSET 0.000000 0.000000 -2.173901
							}
						}
					}
				}
			}
			JOINT RightCollar
			{
				OFFSET -2.636600 -1.718800 6.889698
				CHANNELS 6 Xposition Yposition Zposition Zrotation Xrotation Yrotation
				JOINT RightShoulder
				{
					OFFSET -4.139101 0.000000 0.000000
					CHANNELS 6 Xposition Yposition Zposition Zrotation Xrotation Yrotation
					JOINT RightElbow
					{
						OFFSET 0.000000 0.000000 -10.471802
						CHANNELS 6 Xposition Yposition Zposition Zrotation Xrotation Yrotation
						JOINT RightWrist
						{
							OFFSET 0.000000 0.000000 -12.281898
							CHANNELS 6 Xposition Yposition Zposition Zrotation Xrotation Yrotation
							End Site
							{
								OFFSET 0.000000 -0.000002 -2.173901
							}
						}
					}
				}
			}
		}
	}
	JOINT LeftHip
	{
		OFFSET 2.273400 0.176701 -2.518002
		CHANNELS 6 Xposition Yposition Zposition Zrotation Xrotation Yrotation
		JOINT LeftKnee
		{
			OFFSET 0.000000 -0.000002 -20.456402
			CHANNELS 6 Xposition Yposition Zposition Zrotation Xrotation Yrotation
			JOINT LeftAnkle
			{
				OFFSET 0.000000 -0.000002 -16.635300
				CHANNELS 6 Xposition Yposition Zposition Zrotation Xrotation Yrotation
				End Site
				{
					OFFSET 0.000000 -8.812399 0.000001
				}
			}
		}
	}
	JOINT RightHip
	{
		OFFSET -1.914800 0.018101 -2.699299
		CHANNELS 6 Xposition Yposition Zposition Zrotation Xrotation Yrotation
		JOINT RightKnee
		{
			OFFSET 0.000000 -0.000002 -20.148901
			CHANNELS 6 Xposition Yposition Zposition Zrotation Xrotation Yrotation
			JOINT RightAnkle
			{
				OFFSET 0.000000 -0.000002 -16.838301
				CHANNELS 6 Xposition Yposition Zposition Zrotation Xrotation Yrotation
				End Site
				{
					OFFSET 0.000000 -8.328398 0.000001
				}
			}
		}
	}
}
MOTION
Frames: 10
Frame Time: 0.041667
-10.703202 22.144506 33.961800 1480.719005 28.475556 0.387344 -0.673001 0.623895 5.369205 1.554656 14.050616 -1.259532 0.000003 -0.000001 4.415006 2.210396 -5.060739 -0.732226 -0.000002 -0.000003 10.273302 -15.466313 -14.225921 -6.245940 -0.000001 -0.000004 2.173899 -1.538656 -8.647224 -2.101902 2.359899 -0.565208 5.928102 4.277438 4.585939 -21.271344 5.443695 -0.000011 0.000001 -53.023493 -1.743953 -102.120692 0.000001 0.000001 -10.615797 592.570055 -107.220152 234.882802 0.000006 0.000000 -13.110299 -70.684344 -181.626546 235.878725 -2.636604 -1.718808 6.889705 179.879739 -182.340328 159.038523 -4.139097 -0.000005 0.000008 347.614527 -357.783668 417.743467 -0.000003 -0.000002 -10.471797 -24.432557 -0.000137 -357.975515 0.000005 -0.000000 -12.281903 320.884528 23.817501 44.797889 2.273398 0.176702 -2.518005 -92.550935 -131.978352 -85.641433 0.000000 -0.000003 -20.456398 32.228722 170.204530 -80.638907 -0.000003 -0.000009 -16.635300 67.432559 -1.408466 33.790302 -1.914800 0.018097 -2.699298 73.428352 212.318862 96.336779 0.000002 -0.000004 -20.148907 178.144147 41.846721 -127.477544 0.000000 -0.000005 -16.838301 -42.393970 28.732833 -5.186078
-10.790601 22.149714 33.801102 1481.364212 28.865254 0.086333 -0.672997 0.623898 5.369205 2.328109 14.377710 -1.424838 0.000001 -0.000001 4.415004 2.094332 -5.135560 -0.741071 0.000002 -0.000005 10.273300 -16.209446 -14.161770 -5.903016 -0.000002 0.000000 2.173889 -1.720803 -8.615404 -2.261361 2.359902 -0.565208 5.928100 4.560984 4.881604 -20.890945 5.443699 0.000002 0.000009 -53.642718 -2.733078 -103.312198 0.000001 -0.000004 -10.615796 592.699774 -106.981991 235.448423 0.000003 0.000007 -13.110298 -70.531286 -181.625754 235.937574 -2.636603 -1.718806 6.889699 180.468802 -183.042007 158.551790 -4.139100 -0.000001 -0.000003 348.965375 -356.283595 417.375402 -0.000001 0.000004 -10.471804 -25.909518 -0.145374 -358.044773 -0.000003 0.000002 -12.281900 320.128753 23.721493 44.804026 2.273402 0.176700 -2.518006 -92.067473 -131.977164 -84.309635 -0.000000 -0.000003 -20.456398 32.107292 170.541245 -80.317854 -0.000004 -0.000007 -16.635300 67.555427 -1.283391 33.951504 -1.914794 0.018102 -2.699301 72.775345 212.059547 95.394144 0.000003 -0.000001 -20.148905 179.128254 41.938844 -128.402639 -0.000002 -0.000004 -16.838301 -42.491990 28.832308 -5.060314
-10.875202 22.156210 33.639801 1482.008654 29.279262 -0.207190 -0.673000 0.623894 5.369204 3.092948 14.652332 -1.632858 0.000004 0.000003 4.415001 1.864659 -5.187661 -0.701459 -0.000000 -0.000000 10.273304 -16.853970 -14.104385 -5.569198 -0.000002 -0.000001 2.173899 -1.894854 -8.630631 -2.440708 2.359901 -0.565203 5.928097 3.466929 3.314576 -20.441347 5.443699 -0.000003 -0.000003 -53.405785 -2.320860 -102.655674 -0.000001 0.000001 -10.615791 592.730592 -106.692882 235.850995 -0.000000 0.000008 -13.110301 -70.321517 -181.629005 236.002051 -2.636602 -1.718800 6.889699 181.307030 -183.614801 157.514886 -4.139099 0.000001 0.000001 350.052796 -355.057057 417.524847 -0.000004 -0.000001 -10.471798 -27.339212 -0.272512 -358.093895 -0.000002 0.000000 -12.281907 319.714762 23.691479 44.683391 2.273400 0.176704 -2.518005 -91.507931 -131.972533 -82.946439 0.000003 -0.000005 -20.456398 32.047330 170.886620 -80.006432 -0.000009 -0.000006 -16.635300 67.663440 -1.158626 34.044084 -1.914796 0.018106 -2.699302 72.148559 211.799180 94.443696 0.000004 -0.000007 -20.148899 180.242668 42.175182 -129.419790 -0.000003 -0.000001 -16.838301 -42.534672 28.931332 -4.827087
-10.958801 22.162012 33.479904 1482.667740 29.699370 -0.546407 -0.673005 0.623899 5.369205 3.840499 14.910875 -1.808808 0.000001 -0.000005 4.415009 1.749342 -5.243710 -0.690829 -0.000001 -0.000008 10.273303 -17.588157 -14.062646 -5.175061 -0.000003 0.000003 2.173889 -2.078745 -8.688407 -2.592575 2.359899 -0.565209 5.928106 3.606804 3.337452 -20.081308 5.443699 0.000005 0.000001 -53.963569 -3.122784 -103.578938 0.000003 0.000010 -10.615793 593.084450 -106.541887 236.649744 0.000002 0.000008 -13.110303 -70.422461 -181.464316 235.955824 -2.636604 -1.718812 6.889704 181.862639 -184.252249 157.079352 -4.139101 -0.000007 -0.000003 351.180159 -354.153368 417.183228 -0.000004 -0.000003 -10.471800 -28.509466 -0.359407 -358.152307 -0.000001 0.000003 -12.281898 319.786178 23.820309 44.157982 2.273397 0.176708 -2.518006 -90.886985 -132.038581 -81.578010 0.000002 -0.000000 -20.456394 32.031593 171.201123 -79.704455 -0.000003 -0.000007 -16.635300 67.687147 -1.018515 34.068936 -1.914802 0.018113 -2.699296 71.545098 211.608522 93.500140 0.000002 0.000000 -20.148903 181.482593 42.578856 -130.544791 -0.000001 -0.000004 -16.838303 -42.366834 29.036162 -4.470219
-11.042501 22.167402 33.322205 1483.303002 30.091802 -0.813914 -0.673000 0.623897 5.369203 4.642256 15.195009 -2.069464 0.000003 -0.000005 4.415002 1.603776 -5.294963 -0.679964 -0.000003 -0.000006 10.273300 -18.310072 -14.052307 -4.751990 -0.000001 -0.000003 2.173889 -2.230397 -8.637768 -2.641845 2.359899 -0.565212 5.928095 3.834580 3.582671 -19.746903 5.443701 0.000002 0.000006 -54.547243 -4.138956 -104.691780 -0.000003 0.000008 -10.615795 593.422353 -106.392095 237.506496 0.000004 -0.000001 -13.110295 -70.331387 -181.497906 235.905718 -2.636604 -1.718810 6.889702 182.359521 -184.732329 156.652192 -4.139100 -0.000003 0.000002 352.007814 -353.797952 416.955045 -0.000003 -0.000000 -10.471802 -29.001840 -0.369853 -358.193507 -0.000004 0.000007 -12.281897 319.920405 24.048321 43.765246 2.273401 0.176703 -2.518010 -90.201268 -132.084520 -80.247770 0.000001 -0.000005 -20.456400 32.054884 171.543821 -79.404050 -0.000005 -0.000004 -16.635300 67.663153 -0.887290 34.066566 -1.914794 0.018110 -2.699302 71.031789 211.385025 92.639092 0.000002 -0.000003 -20.148905 182.725797 42.981824 -131.662729 0.000000 0.000003 -16.838303 -42.171299 29.114989 -4.088517
-11.124601 22.171011 33.163998 1483.942745 30.507303 -1.083221 -0.673000 0.623899 5.369205 5.464065 15.424319 -2.372003 0.000003 -0.000002 4.415009 1.376043 -5.329609 -0.687383 0.000002 -0.000003 10.273302 -18.977978 -14.057681 -4.255233 -0.000002 -0.000002 2.173903 -2.363869 -8.710338 -2.776635 2.359900 -0.565206 5.928102 3.992582 3.721218 -19.377762 5.443697 0.000001 0.000004 -55.016880 -4.897613 -105.672049 -0.000004 0.000008 -10.615793 594.008001 -106.249255 238.466957 0.000001 0.000005 -13.110300 -70.226598 -181.531975 235.827034 -2.636603 -1.718804 6.889699 183.572481 -185.015973 156.442286 -4.139097 -0.000004 -0.000001 352.111087 -353.680446 416.530590 -0.000001 0.000001 -10.471795 -29.707075 -0.392077 -358.251044 -0.000003 0.000007 -12.281898 320.571268 24.376672 43.099767 2.273396 0.176706 -2.518004 -89.433725 -132.162357 -78.893418 0.000000 0.000001 -20.456398 32.116847 171.855619 -79.112701 -0.000005 -0.000006 -16.635300 67.568247 -0.745024 33.994313 -1.914800 0.018102 -2.699299 70.520460 211.133250 91.759808 0.000002 -0.000002 -20.148897 184.145015 43.523929 -132.898624 -0.000000 -0.000004 -16.838303 -41.883526 29.204786 -3.475670
-11.207304 22.172712 33.008198 1484.661062 30.995170 -1.374014 -0.673001 0.623897 5.369214 6.200026 15.544259 -2.693967 -0.000001 -0.000000 4.415002 1.163071 -5.366916 -0.692159 -0.000002 -0.000005 10.273304 -19.668693 -14.042256 -3.731589 0.000000 -0.000007 2.173891 -2.462224 -8.771266 -2.888302 2.359898 -0.565204 5.928100 4.131340 3.872433 -18.985489 5.443704 -0.000007 0.000001 -55.462195 -5.597145 -106.660207 0.000003 0.000002 -10.615795 594.767846 -106.121373 239.624237 -0.000001 0.000001 -13.110296 -70.153085 -181.584117 235.687535 -2.636606 -1.718808 6.889700 183.479850 -185.501053 156.025016 -4.139100 -0.000003 0.000002 353.434504 -353.304621 416.511793 -0.000002 -0.000001 -10.471802 -30.417882 -0.425111 -358.320467 0.000002 -0.000001 -12.281897 321.241282 24.695099 42.463836 2.273397 0.176702 -2.518005 -88.600326 -132.239238 -77.443499 0.000001 -0.000004 -20.456396 32.218808 172.047192 -78.820130 -0.000006 -0.000008 -16.635300 67.341649 -0.592822 33.821420 -1.914797 0.018102 -2.699298 69.916507 210.833801 90.812843 0.000003 -0.000004 -20.148907 185.713649 44.183251 -134.244458 -0.000004 -0.000001 -16.838301 -41.482020 29.431681 -2.765319
-11.291202 22.173807 32.853806 1485.435333 31.528741 -1.712872 -0.673003 0.623890 5.369215 6.868123 15.596264 -2.977500 0.000001 -0.000000 4.415009 0.971554 -5.401692 -0.699136 -0.000003 -0.000004 10.273304 -20.454827 -14.002619 -3.184416 -0.000001 0.000002 2.173910 -2.473984 -8.795914 -3.089998 2.359899 -0.565208 5.928099 4.258340 4.035143 -18.585558 5.443699 0.000005 0.000008 -55.866149 -5.816452 -107.654675 0.000003 0.000007 -10.615795 595.843355 -106.064232 240.673545 -0.000001 0.000002 -13.110301 -70.156910 -181.645193 235.510605 -2.636603 -1.718810 6.889704 183.390798 -186.010640 155.635272 -4.139098 -0.000005 -0.000002 354.837808 -352.829923 416.478790 -0.000003 -0.000006 -10.471801 -31.296931 -0.473296 -358.408822 -0.000002 0.000003 -12.281897 321.895723 24.963761 41.907654 2.273402 0.176697 -2.518003 -87.706179 -132.358356 -75.919410 -0.000003 -0.000002 -20.456394 32.333156 172.122420 -78.515135 -0.000004 -0.000007 -16.635298 66.955054 -0.459674 33.637937 -1.914797 0.018098 -2.699301 69.226494 210.440451 89.793874 0.000003 0.000000 -20.148905 187.135613 44.574583 -135.411301 -0.000003 -0.000003 -16.838303 -41.297376 29.517690 -2.199429
-11.375003 22.175802 32.700005 1486.225230 32.040885 -2.066075 -0.672999 0.623891 5.369212 7.571239 15.668039 -3.312043 0.000001 0.000003 4.415001 0.737554 -5.436619 -0.664868 -0.000001 -0.000008 10.273294 -21.336114 -13.961179 -2.618435 -0.000003 -0.000001 2.173900 -2.429597 -8.805914 -3.334350 2.359901 -0.565207 5.928095 4.392758 4.216034 -18.202577 5.443699 0.000000 -0.000001 -56.240170 -5.895660 -108.644896 -0.000003 -0.000002 -10.615792 596.932196 -105.934479 241.602724 0.000005 0.000001 -13.110298 -70.141091 -181.691078 235.400503 -2.636603 -1.718809 6.889694 184.566424 -186.199713 155.485595 -4.139099 -0.000005 -0.000003 354.940971 -352.760747 416.072147 -0.000002 -0.000002 -10.471795 -31.939416 -0.506645 -358.469283 -0.000001 0.000009 -12.281897 322.384437 25.098848 41.559987 2.273400 0.176703 -2.518004 -86.812524 -132.447941 -74.427601 0.000001 -0.000004 -20.456394 32.465282 172.090045 -78.196773 -0.000005 -0.000003 -16.635303 66.416602 -0.376629 33.523391 -1.914796 0.018101 -2.699296 68.535634 210.037989 88.772952 0.000000 -0.000004 -20.148897 188.222433 44.605954 -136.315645 0.000001 -0.000001 -16.838303 -41.423530 29.561124 -1.881933
-11.460999 22.178907 32.548599 1487.419475 32.625618 -2.678444 -0.673004 0.623891 5.369210 7.809854 15.682579 -3.483340 0.000005 0.000004 4.415008 0.545098 -5.513189 -0.684942 0.000000 0.000004 10.273304 -22.216771 -13.887016 -2.116700 -0.000001 0.000001 2.173911 -2.351660 -8.820692 -3.550172 2.359899 -0.565202 5.928100 4.662659 4.301996 -17.914377 5.443702 -0.000002 0.000000 -56.658362 -5.782572 -109.523026 -0.000001 0.000008 -10.615792 598.320419 -105.815545 242.650311 0.000004 0.000005 -13.110300 -70.208122 -181.700039 235.260675 -2.636599 -1.718803 6.889701 185.203967 -186.447758 155.230898 -4.139103 -0.000003 -0.000008 355.678959 -352.406971 415.836260 -0.000002 -0.000010 -10.471800 -32.640842 -0.547770 -358.542202 -0.000003 0.000002 -12.281897 322.583578 24.741720 41.260073 2.273396 0.176698 -2.518005 -86.135017 -132.576485 -72.824611 0.000004 -0.000002 -20.456402 32.672866 172.182034 -77.880371 -0.000002 -0.000005 -16.635300 65.960462 -0.334780 33.455496 -1.914803 0.018094 -2.699296 67.454607 209.585734 87.623868 -0.000001 -0.000004 -20.148903 189.235322 44.519931 -137.145212 0.000000 0.000000 -16.838303 -41.683873 29.660260 -1.510429
